<mxfile host="app.diagrams.net" agent="Mozilla/5.0 (Windows NT 10.0; Win64; x64) AppleWebKit/537.36 (KHTML, like Gecko) Chrome/133.0.0.0 Safari/537.36 Edg/133.0.0.0" version="25.0.3">
  <diagram name="Page-1" id="DMTJp4EC_gIFh5TMf1SD">
    <mxGraphModel dx="1965" dy="1168" grid="1" gridSize="10" guides="1" tooltips="1" connect="1" arrows="1" fold="1" page="1" pageScale="1" pageWidth="850" pageHeight="1100" math="0" shadow="0">
      <root>
        <mxCell id="0" />
        <mxCell id="1" parent="0" />
        <mxCell id="jxlHcmy9AsyqdyeheOge-41" style="edgeStyle=orthogonalEdgeStyle;rounded=0;orthogonalLoop=1;jettySize=auto;html=1;entryX=0.5;entryY=1;entryDx=0;entryDy=0;" edge="1" parent="1" source="jxlHcmy9AsyqdyeheOge-40" target="jxlHcmy9AsyqdyeheOge-35">
          <mxGeometry relative="1" as="geometry" />
        </mxCell>
        <mxCell id="jxlHcmy9AsyqdyeheOge-42" style="edgeStyle=orthogonalEdgeStyle;rounded=0;orthogonalLoop=1;jettySize=auto;html=1;entryX=0.847;entryY=0.002;entryDx=0;entryDy=0;exitX=0.848;exitY=1.011;exitDx=0;exitDy=0;entryPerimeter=0;exitPerimeter=0;" edge="1" parent="1" source="jxlHcmy9AsyqdyeheOge-40" target="jxlHcmy9AsyqdyeheOge-39">
          <mxGeometry relative="1" as="geometry" />
        </mxCell>
        <mxCell id="jxlHcmy9AsyqdyeheOge-40" value="Docker" style="rounded=0;whiteSpace=wrap;html=1;align=left;" vertex="1" parent="1">
          <mxGeometry x="940" y="760" width="330" height="183" as="geometry" />
        </mxCell>
        <mxCell id="jxlHcmy9AsyqdyeheOge-39" value="Docker" style="rounded=0;whiteSpace=wrap;html=1;align=left;" vertex="1" parent="1">
          <mxGeometry x="940" y="983.5" width="330" height="183" as="geometry" />
        </mxCell>
        <mxCell id="jxlHcmy9AsyqdyeheOge-38" style="edgeStyle=orthogonalEdgeStyle;rounded=0;orthogonalLoop=1;jettySize=auto;html=1;entryX=1;entryY=0.5;entryDx=0;entryDy=0;" edge="1" parent="1" source="jxlHcmy9AsyqdyeheOge-37" target="jxlHcmy9AsyqdyeheOge-35">
          <mxGeometry relative="1" as="geometry" />
        </mxCell>
        <mxCell id="jxlHcmy9AsyqdyeheOge-37" value="Docker" style="rounded=0;whiteSpace=wrap;html=1;align=left;" vertex="1" parent="1">
          <mxGeometry x="1440" y="434" width="190" height="289" as="geometry" />
        </mxCell>
        <mxCell id="jxlHcmy9AsyqdyeheOge-35" value="Docker" style="rounded=0;whiteSpace=wrap;html=1;align=left;" vertex="1" parent="1">
          <mxGeometry x="940" y="487" width="330" height="183" as="geometry" />
        </mxCell>
        <mxCell id="jxlHcmy9AsyqdyeheOge-2" value="" style="rounded=0;whiteSpace=wrap;html=1;" vertex="1" parent="1">
          <mxGeometry x="80" y="140" width="270" height="110" as="geometry" />
        </mxCell>
        <mxCell id="jxlHcmy9AsyqdyeheOge-3" value="" style="endArrow=none;html=1;rounded=0;entryX=0.25;entryY=0;entryDx=0;entryDy=0;exitX=0.25;exitY=1;exitDx=0;exitDy=0;" edge="1" parent="1">
          <mxGeometry width="50" height="50" relative="1" as="geometry">
            <mxPoint x="130" y="250" as="sourcePoint" />
            <mxPoint x="130" y="140" as="targetPoint" />
          </mxGeometry>
        </mxCell>
        <mxCell id="jxlHcmy9AsyqdyeheOge-4" value="" style="endArrow=none;html=1;rounded=0;entryX=0.25;entryY=0;entryDx=0;entryDy=0;exitX=0.25;exitY=1;exitDx=0;exitDy=0;" edge="1" parent="1">
          <mxGeometry width="50" height="50" relative="1" as="geometry">
            <mxPoint x="180" y="250" as="sourcePoint" />
            <mxPoint x="180" y="140" as="targetPoint" />
          </mxGeometry>
        </mxCell>
        <mxCell id="jxlHcmy9AsyqdyeheOge-5" value="" style="endArrow=none;html=1;rounded=0;entryX=0.25;entryY=0;entryDx=0;entryDy=0;exitX=0.25;exitY=1;exitDx=0;exitDy=0;" edge="1" parent="1">
          <mxGeometry width="50" height="50" relative="1" as="geometry">
            <mxPoint x="230" y="250" as="sourcePoint" />
            <mxPoint x="230" y="140" as="targetPoint" />
          </mxGeometry>
        </mxCell>
        <mxCell id="jxlHcmy9AsyqdyeheOge-6" value="" style="endArrow=none;html=1;rounded=0;entryX=0.25;entryY=0;entryDx=0;entryDy=0;exitX=0.25;exitY=1;exitDx=0;exitDy=0;" edge="1" parent="1">
          <mxGeometry width="50" height="50" relative="1" as="geometry">
            <mxPoint x="280" y="250" as="sourcePoint" />
            <mxPoint x="280" y="140" as="targetPoint" />
          </mxGeometry>
        </mxCell>
        <mxCell id="jxlHcmy9AsyqdyeheOge-7" value="" style="endArrow=none;html=1;rounded=0;entryX=0.25;entryY=0;entryDx=0;entryDy=0;exitX=0.25;exitY=1;exitDx=0;exitDy=0;" edge="1" parent="1">
          <mxGeometry width="50" height="50" relative="1" as="geometry">
            <mxPoint x="320" y="250" as="sourcePoint" />
            <mxPoint x="320" y="140" as="targetPoint" />
          </mxGeometry>
        </mxCell>
        <mxCell id="jxlHcmy9AsyqdyeheOge-8" value="Fila" style="text;html=1;align=center;verticalAlign=middle;resizable=0;points=[];autosize=1;strokeColor=none;fillColor=none;" vertex="1" parent="1">
          <mxGeometry x="200" y="268" width="40" height="30" as="geometry" />
        </mxCell>
        <mxCell id="jxlHcmy9AsyqdyeheOge-24" value="Mecanismo de Cache diário" style="rounded=0;whiteSpace=wrap;html=1;" vertex="1" parent="1">
          <mxGeometry x="990" y="800" width="120" height="90" as="geometry" />
        </mxCell>
        <mxCell id="jxlHcmy9AsyqdyeheOge-31" value="Docker" style="rounded=0;whiteSpace=wrap;html=1;align=left;" vertex="1" parent="1">
          <mxGeometry x="500" y="100" width="380" height="170" as="geometry" />
        </mxCell>
        <mxCell id="jxlHcmy9AsyqdyeheOge-27" value="Coleta de dados ao vivo" style="rounded=0;whiteSpace=wrap;html=1;" vertex="1" parent="1">
          <mxGeometry x="1150" y="800" width="120" height="90" as="geometry" />
        </mxCell>
        <mxCell id="jxlHcmy9AsyqdyeheOge-28" value="Componente de frontend" style="rounded=0;whiteSpace=wrap;html=1;" vertex="1" parent="1">
          <mxGeometry x="990" y="1020" width="270" height="110" as="geometry" />
        </mxCell>
        <mxCell id="jxlHcmy9AsyqdyeheOge-10" value="Primeiro Componente&lt;div&gt;Lê, trata, valida, insere e em seguida, retira da fila&lt;/div&gt;" style="rounded=0;whiteSpace=wrap;html=1;" vertex="1" parent="1">
          <mxGeometry x="580" y="140" width="270" height="110" as="geometry" />
        </mxCell>
        <mxCell id="jxlHcmy9AsyqdyeheOge-9" value="" style="endArrow=classic;html=1;rounded=0;exitX=1;exitY=0.5;exitDx=0;exitDy=0;" edge="1" parent="1" source="jxlHcmy9AsyqdyeheOge-2">
          <mxGeometry width="50" height="50" relative="1" as="geometry">
            <mxPoint x="390" y="200" as="sourcePoint" />
            <mxPoint x="500" y="200" as="targetPoint" />
          </mxGeometry>
        </mxCell>
        <mxCell id="jxlHcmy9AsyqdyeheOge-32" value="Docker" style="rounded=0;whiteSpace=wrap;html=1;align=left;" vertex="1" parent="1">
          <mxGeometry x="487.5" y="337" width="375" height="188" as="geometry" />
        </mxCell>
        <mxCell id="jxlHcmy9AsyqdyeheOge-13" value="Data Warehouse" style="shape=cylinder3;whiteSpace=wrap;html=1;boundedLbl=1;backgroundOutline=1;size=15;" vertex="1" parent="1">
          <mxGeometry x="600" y="350" width="150" height="162" as="geometry" />
        </mxCell>
        <mxCell id="jxlHcmy9AsyqdyeheOge-14" style="edgeStyle=orthogonalEdgeStyle;rounded=0;orthogonalLoop=1;jettySize=auto;html=1;entryX=0.5;entryY=0;entryDx=0;entryDy=0;exitX=0.569;exitY=0.984;exitDx=0;exitDy=0;exitPerimeter=0;" edge="1" parent="1" source="jxlHcmy9AsyqdyeheOge-31" target="jxlHcmy9AsyqdyeheOge-32">
          <mxGeometry relative="1" as="geometry">
            <mxPoint x="715" y="280" as="sourcePoint" />
            <mxPoint x="680" y="330" as="targetPoint" />
          </mxGeometry>
        </mxCell>
        <mxCell id="jxlHcmy9AsyqdyeheOge-34" style="edgeStyle=orthogonalEdgeStyle;rounded=0;orthogonalLoop=1;jettySize=auto;html=1;entryX=0.999;entryY=0.139;entryDx=0;entryDy=0;entryPerimeter=0;" edge="1" parent="1" source="jxlHcmy9AsyqdyeheOge-33" target="jxlHcmy9AsyqdyeheOge-32">
          <mxGeometry relative="1" as="geometry">
            <mxPoint x="870" y="360" as="targetPoint" />
          </mxGeometry>
        </mxCell>
        <mxCell id="jxlHcmy9AsyqdyeheOge-36" style="edgeStyle=orthogonalEdgeStyle;rounded=0;orthogonalLoop=1;jettySize=auto;html=1;entryX=0.5;entryY=0;entryDx=0;entryDy=0;" edge="1" parent="1" source="jxlHcmy9AsyqdyeheOge-33" target="jxlHcmy9AsyqdyeheOge-35">
          <mxGeometry relative="1" as="geometry" />
        </mxCell>
        <mxCell id="jxlHcmy9AsyqdyeheOge-33" value="Docker" style="rounded=0;whiteSpace=wrap;html=1;align=left;" vertex="1" parent="1">
          <mxGeometry x="940" y="270" width="330" height="175" as="geometry" />
        </mxCell>
        <mxCell id="jxlHcmy9AsyqdyeheOge-16" value="Segundo Componente&lt;div&gt;Lê, trata, valida e cria as views&lt;/div&gt;" style="rounded=0;whiteSpace=wrap;html=1;" vertex="1" parent="1">
          <mxGeometry x="990" y="324" width="270" height="110" as="geometry" />
        </mxCell>
        <mxCell id="jxlHcmy9AsyqdyeheOge-20" value="DB Gold" style="shape=cylinder3;whiteSpace=wrap;html=1;boundedLbl=1;backgroundOutline=1;size=15;" vertex="1" parent="1">
          <mxGeometry x="1050" y="500" width="150" height="162" as="geometry" />
        </mxCell>
        <mxCell id="jxlHcmy9AsyqdyeheOge-22" value="Componente Job 1&lt;div&gt;Reanálise diária para refazer a árvore de falhas&lt;/div&gt;" style="rounded=0;whiteSpace=wrap;html=1;" vertex="1" parent="1">
          <mxGeometry x="1490" y="470" width="120" height="90" as="geometry" />
        </mxCell>
        <mxCell id="jxlHcmy9AsyqdyeheOge-23" value="Componente Job 2&lt;div&gt;Verificação de coerência do DB Gold&lt;/div&gt;" style="rounded=0;whiteSpace=wrap;html=1;" vertex="1" parent="1">
          <mxGeometry x="1490" y="590" width="120" height="90" as="geometry" />
        </mxCell>
        <mxCell id="jxlHcmy9AsyqdyeheOge-43" style="edgeStyle=orthogonalEdgeStyle;rounded=0;orthogonalLoop=1;jettySize=auto;html=1;entryX=0.068;entryY=1.017;entryDx=0;entryDy=0;exitX=0.303;exitY=0;exitDx=0;exitDy=0;entryPerimeter=0;exitPerimeter=0;" edge="1" parent="1" source="jxlHcmy9AsyqdyeheOge-39">
          <mxGeometry relative="1" as="geometry">
            <mxPoint x="1041.36" y="981.8539999999999" as="sourcePoint" />
            <mxPoint x="1040.04" y="943.0009999999999" as="targetPoint" />
          </mxGeometry>
        </mxCell>
        <mxCell id="jxlHcmy9AsyqdyeheOge-44" value="RabbitMQ" style="text;html=1;align=center;verticalAlign=middle;resizable=0;points=[];autosize=1;strokeColor=none;fillColor=none;" vertex="1" parent="1">
          <mxGeometry x="130" y="88" width="80" height="30" as="geometry" />
        </mxCell>
      </root>
    </mxGraphModel>
  </diagram>
</mxfile>
